<svg xmlns="http://www.w3.org/2000/svg" viewBox="0 0 200 200">
  <!-- 背景 -->
  <circle cx="100" cy="100" r="95" fill="#F5E6D3"/>
  
  <!-- 耳朵 -->
  <ellipse cx="55" cy="70" rx="30" ry="40" fill="#D4A574"/>
  <ellipse cx="145" cy="70" rx="30" ry="40" fill="#D4A574"/>
  <ellipse cx="55" cy="75" rx="20" ry="28" fill="#E8C9A8"/>
  <ellipse cx="145" cy="75" rx="20" ry="28" fill="#E8C9A8"/>
  
  <!-- 脸 -->
  <ellipse cx="100" cy="115" rx="65" ry="55" fill="#D4A574"/>
  
  <!-- 眼睛 -->
  <ellipse cx="75" cy="105" rx="15" ry="18" fill="#3D2314"/>
  <ellipse cx="125" cy="105" rx="15" ry="18" fill="#3D2314"/>
  <circle cx="78" cy="102" r="5" fill="white"/>
  <circle cx="128" cy="102" r="5" fill="white"/>
  
  <!-- 鼻子 -->
  <ellipse cx="100" cy="130" rx="18" ry="12" fill="#2D1810"/>
  <ellipse cx="100" cy="127" rx="8" ry="4" fill="#4A3020"/>
  
  <!-- 嘴巴 -->
  <path d="M85 145 Q100 160 115 145" stroke="#2D1810" stroke-width="3" fill="none" stroke-linecap="round"/>
  
  <!-- 舌头 -->
  <ellipse cx="100" cy="155" rx="10" ry="12" fill="#E87A7A"/>
  
  <!-- 斑点 -->
  <circle cx="45" cy="130" r="8" fill="#C49464" opacity="0.5"/>
  <circle cx="155" cy="125" r="6" fill="#C49464" opacity="0.5"/>
</svg>